<?xml version="1.0" encoding="UTF-8" standalone="no"?>
<!-- Generated by graphviz version 2.24.0 (20090616.2323)
 -->
<!-- Title: _anonymous_0 Pages: 1 -->
<svg xmlns:dc="http://purl.org/dc/elements/1.1/" xmlns:cc="http://creativecommons.org/ns#" xmlns:rdf="http://www.w3.org/1999/02/22-rdf-syntax-ns#" xmlns:svg="http://www.w3.org/2000/svg" xmlns="http://www.w3.org/2000/svg" xmlns:sodipodi="http://sodipodi.sourceforge.net/DTD/sodipodi-0.dtd" xmlns:inkscape="http://www.inkscape.org/namespaces/inkscape" width="500" height="570" viewBox="0 0 424.53 524" id="svg2" sodipodi:version="0.32" inkscape:version="0.46" sodipodi:docname="trie-dawg.svg" inkscape:output_extension="org.inkscape.output.svg.inkscape" version="1.0">
  <metadata id="metadata264">
    <rdf:RDF>
      <cc:Work rdf:about="">
        <dc:format>image/svg+xml</dc:format>
        <dc:type rdf:resource="http://purl.org/dc/dcmitype/StillImage"/>
      </cc:Work>
    </rdf:RDF>
  </metadata>
  <defs id="defs262">
    <inkscape:perspective sodipodi:type="inkscape:persp3d" inkscape:vp_x="0 : 327.5 : 1" inkscape:vp_y="0 : 1000 : 0" inkscape:vp_z="531.25 : 327.5 : 1" inkscape:persp3d-origin="265.625 : 218.33333 : 1" id="perspective266"/>
    <title id="title5">_anonymous_0</title>
    <title id="title253">dawg_t_ps-&gt;dawg__</title>
    <title id="title244">dawg_t_p-&gt;dawg__</title>
    <title id="title239">dawg__</title>
    <title id="title230">dawg_t_p-&gt;dawg_t_ps</title>
    <title id="title225">dawg_t_ps</title>
    <title id="title216">dawg_t_-&gt;dawg_t_p</title>
    <title id="title211">dawg_t_p</title>
    <title id="title202">dawg_t-&gt;dawg_t_</title>
    <title id="title193">dawg_t-&gt;dawg_t_</title>
    <title id="title188">dawg_t_</title>
    <title id="title179">dawg_-&gt;dawg_t</title>
    <title id="title174">dawg_t</title>
    <title id="title169">dawg_</title>
    <title id="title160">trie_taps-&gt;trie_taps_</title>
    <title id="title155">trie_taps_</title>
    <title id="title146">trie_tap-&gt;trie_taps</title>
    <title id="title141">trie_taps</title>
    <title id="title132">trie_tap-&gt;trie_tap_</title>
    <title id="title127">trie_tap_</title>
    <title id="title118">trie_ta-&gt;trie_tap</title>
    <title id="title113">trie_tap</title>
    <title id="title104">trie_tops-&gt;trie_tops_</title>
    <title id="title99">trie_tops_</title>
    <title id="title90">trie_top-&gt;trie_top_</title>
    <title id="title85">trie_top_</title>
    <title id="title76">trie_top-&gt;trie_tops</title>
    <title id="title71">trie_tops</title>
    <title id="title62">trie_to-&gt;trie_top</title>
    <title id="title57">trie_top</title>
    <title id="title48">trie_t-&gt;trie_ta</title>
    <title id="title43">trie_ta</title>
    <title id="title34">trie_t-&gt;trie_to</title>
    <title id="title29">trie_to</title>
    <title id="title20">trie_-&gt;trie_t</title>
    <title id="title15">trie_t</title>
    <title id="title10">trie_</title>
  </defs>
  <sodipodi:namedview inkscape:window-height="721" inkscape:window-width="947" inkscape:pageshadow="2" inkscape:pageopacity="0.0" guidetolerance="10.0" gridtolerance="10.0" objecttolerance="10.0" borderopacity="1.0" bordercolor="#666666" pagecolor="#ffffff" id="base" showgrid="false" inkscape:zoom="0.75419847" inkscape:cx="242.54287" inkscape:cy="268.36984" inkscape:window-x="100" inkscape:window-y="25" inkscape:current-layer="svg2"/>
  <ellipse cx="126" cy="-498" rx="27" ry="18" id="ellipse12" sodipodi:cx="126" sodipodi:cy="-498" sodipodi:rx="27" sodipodi:ry="18" style="fill:none;stroke:#000000;stroke-width:3.2309947;stroke-miterlimit:4;stroke-dasharray:none" transform="matrix(0.9838181,0,0,0.9838181,-6.8831903,517.64164)"/>
  <ellipse cx="126" cy="-402" rx="27" ry="18" id="ellipse17" sodipodi:cx="126" sodipodi:cy="-402" sodipodi:rx="27" sodipodi:ry="18" style="fill:none;stroke:#000000;stroke-width:3.2309947;stroke-miterlimit:4;stroke-dasharray:none" transform="matrix(0.9838181,0,0,0.9838181,-6.8831903,517.64164)"/>
  <path d="M 117.07789,45.464976 C 117.07789,59.097743 117.07789,78.183813 117.07789,93.903258" id="path22" style="fill:none;stroke:#000000;stroke-width:3.17871094;stroke-miterlimit:4;stroke-dasharray:none"/>
  <polygon points="129.5,-430.302 126,-420.302 122.5,-430.302 129.5,-430.302 " id="polygon24" style="fill:#000000;stroke:#000000;stroke-width:3.2309947;stroke-miterlimit:4;stroke-dasharray:none" transform="matrix(0.9838181,0,0,0.9838181,-6.8831903,517.64164)"/>
  <text x="139.72046" y="88.131363" font-size="20.00" id="text26" style="font-size:50.37148666px;text-anchor:middle;stroke-width:3.2309947;stroke-miterlimit:4;stroke-dasharray:none;font-family:'Times Roman,serif'">t</text>
  <ellipse cx="99" cy="-306" rx="27" ry="18" id="ellipse31" sodipodi:cx="99" sodipodi:cy="-306" sodipodi:rx="27" sodipodi:ry="18" style="fill:none;stroke:#000000;stroke-width:3.2309947;stroke-miterlimit:4;stroke-dasharray:none" transform="matrix(0.9838181,0,0,0.9838181,-6.8831903,517.64164)"/>
  <path d="M 112.08207,139.91159 C 108.18615,153.76276 102.70627,173.24433 98.245641,189.10446" id="path36" style="fill:none;stroke:#000000;stroke-width:3.17871094;stroke-miterlimit:4;stroke-dasharray:none"/>
  <polygon points="110.133,-332.655 104.056,-323.976 103.394,-334.55 110.133,-332.655 " id="polygon38" style="fill:#000000;stroke:#000000;stroke-width:3.2309947;stroke-miterlimit:4;stroke-dasharray:none" transform="matrix(0.9838181,0,0,0.9838181,-6.8831903,517.64164)"/>
  <text x="75.583511" y="174.14851" font-size="20.00" id="text40" style="font-size:50.37148666px;text-anchor:middle;stroke-width:3.2309947;stroke-miterlimit:4;stroke-dasharray:none;font-family:'Times Roman,serif'">o</text>
  <ellipse cx="171" cy="-306" rx="27" ry="18" id="ellipse45" sodipodi:cx="171" sodipodi:cy="-306" sodipodi:rx="27" sodipodi:ry="18" style="fill:none;stroke:#000000;stroke-width:3.2309947;stroke-miterlimit:4;stroke-dasharray:none" transform="matrix(0.9838181,0,0,0.9838181,-6.8831903,517.64164)"/>
  <path d="M 125.19834,139.46981 C 131.87552,153.7155 141.44413,174.12677 149.05888,190.37354" id="path50" style="fill:none;stroke:#000000;stroke-width:3.17871094;stroke-miterlimit:4;stroke-dasharray:none"/>
  <polygon points="161.723,-334.036 162.799,-323.496 155.385,-331.065 161.723,-334.036 " id="polygon52" style="fill:#000000;stroke:#000000;stroke-width:3.2309947;stroke-miterlimit:4;stroke-dasharray:none" transform="matrix(0.9838181,0,0,0.9838181,-6.8831903,517.64164)"/>
  <text x="166.79315" y="169.93384" font-size="20.00" id="text54" style="font-size:50.37148666px;text-anchor:middle;stroke-width:3.2309947;stroke-miterlimit:4;stroke-dasharray:none;font-family:'Times Roman,serif'">a</text>
  <ellipse cx="99" cy="-210" rx="27" ry="18" id="ellipse59" sodipodi:cx="99" sodipodi:cy="-210" sodipodi:rx="27" sodipodi:ry="18" style="fill:none;stroke:#000000;stroke-width:3.2309947;stroke-miterlimit:4;stroke-dasharray:none" transform="matrix(0.9838181,0,0,0.9838181,-6.8831903,517.64164)"/>
  <path d="M 90.514799,234.35812 C 90.514799,247.99089 90.514799,267.07696 90.514799,282.7964" id="path64" style="fill:none;stroke:#000000;stroke-width:3.17871094;stroke-miterlimit:4;stroke-dasharray:none"/>
  <polygon points="102.5,-238.302 99,-228.302 95.5001,-238.302 102.5,-238.302 " id="polygon66" style="fill:#000000;stroke:#000000;stroke-width:3.2309947;stroke-miterlimit:4;stroke-dasharray:none" transform="matrix(0.9838181,0,0,0.9838181,-6.8831903,517.64164)"/>
  <text x="115.30198" y="267.06006" font-size="20.00" id="text68" style="font-size:50.37148666px;text-anchor:middle;stroke-width:3.2309947;stroke-miterlimit:4;stroke-dasharray:none;font-family:'Times Roman,serif'">p</text>
  <ellipse cx="27" cy="-114" rx="27" ry="18" id="ellipse73" sodipodi:cx="27" sodipodi:cy="-114" sodipodi:rx="27" sodipodi:ry="18" style="fill:none;stroke:#000000;stroke-width:3.2309947;stroke-miterlimit:4;stroke-dasharray:none" transform="matrix(0.9838181,0,0,0.9838181,-6.8831903,517.64164)"/>
  <path d="M 78.498639,327.06133 C 67.304659,341.98683 50.465727,364.43854 37.6696,381.49992" id="path78" style="fill:none;stroke:#000000;stroke-width:3.17871094;stroke-miterlimit:4;stroke-dasharray:none"/>
  <polygon points="48.0738,-136.265 39.2737,-130.365 42.4738,-140.465 48.0738,-136.265 " id="polygon80" style="fill:#000000;stroke:#000000;stroke-width:3.2309947;stroke-miterlimit:4;stroke-dasharray:none" transform="matrix(0.9838181,0,0,0.9838181,-6.8831903,517.64164)"/>
  <text x="38.67186" y="354.49902" font-size="20.00" id="text82" style="font-size:50.37148666px;text-anchor:middle;stroke-width:3.2309947;stroke-miterlimit:4;stroke-dasharray:none;font-family:'Times Roman,serif'">s</text>
  <ellipse cx="99" cy="-114" rx="27" ry="18" id="ellipse87" sodipodi:cx="99" sodipodi:cy="-114" sodipodi:rx="27" sodipodi:ry="18" style="fill:none;stroke:#000000;stroke-width:3.2309947;stroke-miterlimit:4;stroke-dasharray:none" transform="matrix(0.9838181,0,0,0.9838181,-6.8831903,517.64164)"/>
  <path d="M 90.514799,328.80465 C 90.514799,342.43742 90.514799,361.52349 90.514799,377.24294" id="path92" style="fill:none;stroke:#000000;stroke-width:3.17871094;stroke-miterlimit:4;stroke-dasharray:none"/>
  <polygon points="102.5,-142.302 99,-132.302 95.5001,-142.302 102.5,-142.302 " id="polygon94" style="fill:#000000;stroke:#000000;stroke-width:3.2309947;stroke-miterlimit:4;stroke-dasharray:none" transform="matrix(0.9838181,0,0,0.9838181,-6.8831903,517.64164)"/>
  <text x="113.65131" y="347.93198" font-size="20.00" id="text96" style="font-size:14.16697979px;text-anchor:middle;stroke-width:3.2309947;stroke-miterlimit:4;stroke-dasharray:none;font-family:'Times Roman,serif'">EOW</text>
  <ellipse cx="27" cy="-18" rx="27" ry="18" id="ellipse101" sodipodi:cx="27" sodipodi:cy="-18" sodipodi:rx="27" sodipodi:ry="18" style="fill:none;stroke:#000000;stroke-width:3.2309947;stroke-miterlimit:4;stroke-dasharray:none" transform="matrix(0.9838181,0,0,0.9838181,-6.8831903,517.64164)"/>
  <path d="M 19.679896,423.25109 C 19.679896,436.88376 19.679896,455.96992 19.679896,471.68996" id="path106" style="fill:none;stroke:#000000;stroke-width:3.17871094;stroke-miterlimit:4;stroke-dasharray:none"/>
  <polygon points="30.5001,-46.3023 27,-36.3023 23.5001,-46.3023 30.5001,-46.3023 " id="polygon108" style="fill:#000000;stroke:#000000;stroke-width:3.2309947;stroke-miterlimit:4;stroke-dasharray:none" transform="matrix(0.9838181,0,0,0.9838181,-6.8831903,517.64164)"/>
  <text x="42.078476" y="458.61258" font-size="20.00" id="text110" style="font-size:14.16697979px;text-anchor:middle;stroke-width:3.2309947;stroke-miterlimit:4;stroke-dasharray:none;font-family:'Times Roman,serif'">EOW</text>
  <ellipse cx="171" cy="-210" rx="27" ry="18" id="ellipse115" sodipodi:cx="171" sodipodi:cy="-210" sodipodi:rx="27" sodipodi:ry="18" style="fill:none;stroke:#000000;stroke-width:3.2309947;stroke-miterlimit:4;stroke-dasharray:none" transform="matrix(0.9838181,0,0,0.9838181,-6.8831903,517.64164)"/>
  <path d="M 161.34972,234.35808 C 161.34972,247.99085 161.34972,267.07692 161.34972,282.79636" id="path120" style="fill:none;stroke:#000000;stroke-width:3.17871094;stroke-miterlimit:4;stroke-dasharray:none"/>
  <polygon points="174.5,-238.302 171,-228.302 167.5,-238.302 174.5,-238.302 " id="polygon122" style="fill:#000000;stroke:#000000;stroke-width:3.2309947;stroke-miterlimit:4;stroke-dasharray:none" transform="matrix(0.9838181,0,0,0.9838181,-6.8831903,517.64164)"/>
  <text x="186.13692" y="267.06006" font-size="20.00" id="text124" style="font-size:50.37148666px;text-anchor:middle;stroke-width:3.2309947;stroke-miterlimit:4;stroke-dasharray:none;font-family:'Times Roman,serif'">p</text>
  <ellipse cx="171" cy="-114" rx="27" ry="18" id="ellipse129" sodipodi:cx="171" sodipodi:cy="-114" sodipodi:rx="27" sodipodi:ry="18" style="fill:none;stroke:#000000;stroke-width:3.2309947;stroke-miterlimit:4;stroke-dasharray:none" transform="matrix(0.9838181,0,0,0.9838181,-6.8831903,517.64164)"/>
  <path d="M 161.34972,328.80461 C 161.34972,342.43738 161.34972,361.52345 161.34972,377.2429" id="path134" style="fill:none;stroke:#000000;stroke-width:3.17871094;stroke-miterlimit:4;stroke-dasharray:none"/>
  <polygon points="174.5,-142.302 171,-132.302 167.5,-142.302 174.5,-142.302 " id="polygon136" style="fill:#000000;stroke:#000000;stroke-width:3.2309947;stroke-miterlimit:4;stroke-dasharray:none" transform="matrix(0.9838181,0,0,0.9838181,-6.8831903,517.64164)"/>
  <text x="136.52194" y="370.80722" font-size="20.00" id="text138" style="font-size:14.16697979px;text-anchor:middle;stroke-width:3.2309947;stroke-miterlimit:4;stroke-dasharray:none;font-family:'Times Roman,serif'">EOW</text>
  <ellipse cx="243" cy="-114" rx="27" ry="18" id="ellipse143" sodipodi:cx="243" sodipodi:cy="-114" sodipodi:rx="27" sodipodi:ry="18" style="fill:none;stroke:#000000;stroke-width:3.2309947;stroke-miterlimit:4;stroke-dasharray:none" transform="matrix(0.9838181,0,0,0.9838181,-6.8831903,517.64164)"/>
  <path d="M 182.2775,322.63706 C 191.66803,328.70918 202.25096,336.87881 209.5568,346.45726 C 216.66882,355.78189 221.78565,367.6064 225.33429,378.21884" id="path148" style="fill:none;stroke:#000000;stroke-width:3.17871094;stroke-miterlimit:4;stroke-dasharray:none"/>
  <polygon points="239.469,-142.459 239.021,-131.874 232.77,-140.428 239.469,-142.459 " id="polygon150" style="fill:#000000;stroke:#000000;stroke-width:3.2309947;stroke-miterlimit:4;stroke-dasharray:none" transform="matrix(0.9838181,0,0,0.9838181,-6.8831903,517.64164)"/>
  <text x="232.48628" y="357.45068" font-size="20.00" id="text152" style="font-size:50.37148666px;text-anchor:middle;stroke-width:3.2309947;stroke-miterlimit:4;stroke-dasharray:none;font-family:'Times Roman,serif'">s</text>
  <ellipse cx="243" cy="-18" rx="27" ry="18" id="ellipse157" sodipodi:cx="243" sodipodi:cy="-18" sodipodi:rx="27" sodipodi:ry="18" style="fill:none;stroke:#000000;stroke-width:3.2309947;stroke-miterlimit:4;stroke-dasharray:none" transform="matrix(0.9838181,0,0,0.9838181,-6.8831903,517.64164)"/>
  <path d="M 232.18461,423.25105 C 232.18461,436.88372 232.18461,455.96989 232.18461,471.68992" id="path162" style="fill:none;stroke:#000000;stroke-width:3.17871094;stroke-miterlimit:4;stroke-dasharray:none"/>
  <polygon points="246.5,-46.3023 243,-36.3023 239.5,-46.3023 246.5,-46.3023 " id="polygon164" style="fill:#000000;stroke:#000000;stroke-width:3.2309947;stroke-miterlimit:4;stroke-dasharray:none" transform="matrix(0.9838181,0,0,0.9838181,-6.8831903,517.64164)"/>
  <text x="206.61893" y="456.39883" font-size="20.00" id="text166" style="font-size:14.16697979px;text-anchor:middle;stroke-width:3.2309947;stroke-miterlimit:4;stroke-dasharray:none;font-family:'Times Roman,serif'">EOW</text>
  <ellipse cx="361" cy="-498" rx="27" ry="18" id="ellipse171" sodipodi:cx="361" sodipodi:cy="-498" sodipodi:rx="27" sodipodi:ry="18" style="fill:none;stroke:#000000;stroke-width:3.2309947;stroke-miterlimit:4;stroke-dasharray:none" transform="matrix(0.9838181,0,0,0.9838181,30.542271,517.64164)"/>
  <ellipse cx="361" cy="-402" rx="27" ry="18" id="ellipse176" sodipodi:cx="361" sodipodi:cy="-402" sodipodi:rx="27" sodipodi:ry="18" style="fill:none;stroke:#000000;stroke-width:3.2309947;stroke-miterlimit:4;stroke-dasharray:none" transform="matrix(0.9838181,0,0,0.9838181,30.542271,517.64164)"/>
  <path d="M 385.70058,45.464976 C 385.70058,59.097743 385.70058,78.183813 385.70058,93.903258" id="path181" style="fill:none;stroke:#000000;stroke-width:3.17871094;stroke-miterlimit:4;stroke-dasharray:none"/>
  <polygon points="364.5,-430.302 361,-420.302 357.5,-430.302 364.5,-430.302 " id="polygon183" style="fill:#000000;stroke:#000000;stroke-width:3.2309947;stroke-miterlimit:4;stroke-dasharray:none" transform="matrix(0.9838181,0,0,0.9838181,30.542271,517.64164)"/>
  <text x="408.34326" y="88.131363" font-size="20.00" id="text185" style="font-size:50.37148666px;text-anchor:middle;stroke-width:3.2309947;stroke-miterlimit:4;stroke-dasharray:none;font-family:'Times Roman,serif'">t</text>
  <ellipse cx="362" cy="-306" rx="27" ry="18" id="ellipse190" sodipodi:cx="362" sodipodi:cy="-306" sodipodi:rx="27" sodipodi:ry="18" style="fill:none;stroke:#000000;stroke-width:3.2309947;stroke-miterlimit:4;stroke-dasharray:none" transform="matrix(0.9838181,0,0,0.9838181,30.542271,517.64164)"/>
  <path d="M 377.08236,139.00939 C 374.58641,144.74505 372.1977,151.29334 370.94333,157.56419 C 368.88518,167.85493 368.76516,170.91067 370.94333,181.17583 C 371.59265,184.23649 372.52531,187.35421 373.61735,190.40601" id="path195" style="fill:none;stroke:#000000;stroke-width:3.17871094;stroke-miterlimit:4;stroke-dasharray:none"/>
  <polygon points="352.074,-333.661 352.66,-323.083 345.605,-330.987 352.074,-333.661 " id="polygon197" style="fill:#000000;stroke:#000000;stroke-width:3.2309947;stroke-miterlimit:4;stroke-dasharray:none" transform="matrix(0.9838181,0,0,0.9838181,30.542271,517.64164)"/>
  <text x="349.25159" y="180.47086" font-size="20.00" id="text199" style="font-size:50.37148666px;text-anchor:middle;stroke-width:3.2309947;stroke-miterlimit:4;stroke-dasharray:none;font-family:'Times Roman,serif'">o</text>
  <path d="M 385.88556,139.91155 C 386.02723,153.54431 386.22695,172.63038 386.39026,188.34983" id="path204" style="fill:none;stroke:#000000;stroke-width:3.17871094;stroke-miterlimit:4;stroke-dasharray:none"/>
  <polygon points="365.205,-334.338 361.809,-324.302 358.205,-334.265 365.205,-334.338 " id="polygon206" style="fill:#000000;stroke:#000000;stroke-width:3.2309947;stroke-miterlimit:4;stroke-dasharray:none" transform="matrix(0.9838181,0,0,0.9838181,30.542271,517.64164)"/>
  <text x="410.96024" y="182.5779" font-size="20.00" id="text208" style="font-size:50.37148666px;text-anchor:middle;stroke-width:3.2309947;stroke-miterlimit:4;stroke-dasharray:none;font-family:'Times Roman,serif'">a</text>
  <ellipse cx="362" cy="-210" rx="27" ry="18" id="ellipse213" sodipodi:cx="362" sodipodi:cy="-210" sodipodi:rx="27" sodipodi:ry="18" style="fill:none;stroke:#000000;stroke-width:3.2309947;stroke-miterlimit:4;stroke-dasharray:none" transform="matrix(0.9838181,0,0,0.9838181,30.542271,517.64164)"/>
  <path d="M 386.68442,234.35808 C 386.68442,247.99085 386.68442,267.07692 386.68442,282.79636" id="path218" style="fill:none;stroke:#000000;stroke-width:3.17871094;stroke-miterlimit:4;stroke-dasharray:none"/>
  <polygon points="365.5,-238.302 362,-228.302 358.5,-238.302 365.5,-238.302 " id="polygon220" style="fill:#000000;stroke:#000000;stroke-width:3.2309947;stroke-miterlimit:4;stroke-dasharray:none" transform="matrix(0.9838181,0,0,0.9838181,30.542271,517.64164)"/>
  <text x="411.47171" y="267.06006" font-size="20.00" id="text222" style="font-size:50.37148666px;text-anchor:middle;stroke-width:3.2309947;stroke-miterlimit:4;stroke-dasharray:none;font-family:'Times Roman,serif'">p</text>
  <ellipse cx="315" cy="-114" rx="27" ry="18" id="ellipse227" sodipodi:cx="315" sodipodi:cy="-114" sodipodi:rx="27" sodipodi:ry="18" style="fill:none;stroke:#000000;stroke-width:3.2309947;stroke-miterlimit:4;stroke-dasharray:none" transform="matrix(0.9838181,0,0,0.9838181,30.542271,517.64164)"/>
  <path d="M 378.4174,327.92508 C 371.4254,342.20717 361.29011,362.90867 353.24936,379.33351" id="path232" style="fill:none;stroke:#000000;stroke-width:3.17871094;stroke-miterlimit:4;stroke-dasharray:none"/>
  <polygon points="331.029,-138.78 323.488,-131.338 324.742,-141.858 331.029,-138.78 " id="polygon234" style="fill:#000000;stroke:#000000;stroke-width:3.2309947;stroke-miterlimit:4;stroke-dasharray:none" transform="matrix(0.9838181,0,0,0.9838181,30.542271,517.64164)"/>
  <text x="346.89346" y="359.66443" font-size="20.00" id="text236" style="font-size:50.37148666px;text-anchor:middle;stroke-width:3.2309947;stroke-miterlimit:4;stroke-dasharray:none;font-family:'Times Roman,serif'">s</text>
  <ellipse cx="346" cy="-18" rx="27" ry="18" id="ellipse241" sodipodi:cx="346" sodipodi:cy="-18" sodipodi:rx="27" sodipodi:ry="18" style="fill:none;stroke:#000000;stroke-width:3.2309947;stroke-miterlimit:4;stroke-dasharray:none" transform="matrix(0.9838181,0,0,0.9838181,30.542271,517.64164)"/>
  <path d="M 389.66834,328.8361 C 393.90663,357.75248 399.97875,416.53659 388.65206,464.51543 C 387.89353,467.727 386.79756,470.97931 385.51663,474.14435" id="path246" style="fill:none;stroke:#000000;stroke-width:3.17871094;stroke-miterlimit:4;stroke-dasharray:none"/>
  <polygon points="363.896,-42.5432 356.499,-34.9585 357.552,-45.5009 363.896,-42.5432 " id="polygon248" style="fill:#000000;stroke:#000000;stroke-width:3.2309947;stroke-miterlimit:4;stroke-dasharray:none" transform="matrix(0.9838181,0,0,0.9838181,30.542271,517.64164)"/>
  <text x="417.93741" y="411.38931" font-size="20.00" id="text250" style="font-size:14.16697979px;text-anchor:middle;stroke-width:3.2309947;stroke-miterlimit:4;stroke-dasharray:none;font-family:'Times Roman,serif'">EOW</text>
  <path d="M 338.79904,423.34618 C 338.32976,435.35211 338.96236,451.33059 343.85489,464.51543 C 345.44277,468.79513 347.73703,472.98246 350.32644,476.89284" id="path255" style="fill:none;stroke:#000000;stroke-width:3.17871094;stroke-miterlimit:4;stroke-dasharray:none"/>
  <polygon points="327.968,-43.3529 331.127,-33.2401 322.351,-39.1754 327.968,-43.3529 " id="polygon257" style="fill:#000000;stroke:#000000;stroke-width:3.2309947;stroke-miterlimit:4;stroke-dasharray:none" transform="matrix(0.9838181,0,0,0.9838181,30.542271,517.64164)"/>
  <text x="318.81464" y="464.51587" font-size="20.00" id="text259" style="font-size:14.16697979px;text-anchor:middle;stroke-width:3.2309947;stroke-miterlimit:4;stroke-dasharray:none;font-family:'Times Roman,serif'">EOW</text>
</svg>