<?xml version="1.0" encoding="UTF-8" standalone="no"?>
<!-- Generated by graphviz version 2.38.0 (20140413.2041)
 -->

<!-- Title: G Pages: 1 -->

<svg
   xmlns:dc="http://purl.org/dc/elements/1.1/"
   xmlns:cc="http://creativecommons.org/ns#"
   xmlns:rdf="http://www.w3.org/1999/02/22-rdf-syntax-ns#"
   xmlns:svg="http://www.w3.org/2000/svg"
   xmlns="http://www.w3.org/2000/svg"
   xmlns:sodipodi="http://sodipodi.sourceforge.net/DTD/sodipodi-0.dtd"
   xmlns:inkscape="http://www.inkscape.org/namespaces/inkscape"
   width="2208pt"
   height="508pt"
   viewBox="0.00 0.00 530.00 122.00"
   id="svg2"
   version="1.1"
   inkscape:version="0.91 r13725"
   sodipodi:docname="example.svg">
  <metadata
     id="metadata126">
    <rdf:RDF>
      <cc:Work
         rdf:about="">
        <dc:format>image/svg+xml</dc:format>
        <dc:type
           rdf:resource="http://purl.org/dc/dcmitype/StillImage" />
      </cc:Work>
    </rdf:RDF>
  </metadata>
  <defs
     id="defs124" />
  <sodipodi:namedview
     pagecolor="#ffffff"
     bordercolor="#666666"
     borderopacity="1"
     objecttolerance="10"
     gridtolerance="10"
     guidetolerance="10"
     inkscape:pageopacity="0"
     inkscape:pageshadow="2"
     inkscape:window-width="2560"
     inkscape:window-height="1416"
     id="namedview122"
     showgrid="false"
     inkscape:zoom="0.11956522"
     inkscape:cx="1380"
     inkscape:cy="317.5"
     inkscape:window-x="0"
     inkscape:window-y="24"
     inkscape:window-maximized="1"
     inkscape:current-layer="svg2" />
  <g
     id="g4331">
    <polygon
       transform="matrix(4.16667,0,0,4.16667,-555.37972,326.15925)"
       points="526,4 -4,4 -4,4 -4,-118 526,-118 "
       id="polygon7"
       style="fill:#ffffff;stroke:none" />
    <g
       transform="matrix(4.16667,0,0,4.16667,-555.37972,326.15925)"
       id="node1"
       class="node">
      <title
         id="title10">0</title>
      <polygon
         points="25.0883,-86 4,-75.4558 4,-60.5442 25.0883,-50 54.9117,-50 76,-60.5442 76,-60.5442 76,-75.4558 54.9117,-86 "
         id="polygon12"
         style="fill:#d3d3d3;stroke:#000000" />
      <polygon
         points="24.144,-90 7.10543e-15,-77.928 0,-58.072 24.144,-46 55.856,-46 80,-58.072 80,-58.072 80,-77.928 55.856,-90 "
         id="polygon14"
         style="fill:none;stroke:#000000" />
    </g>
    <g
       transform="matrix(4.16667,0,0,4.16667,-555.37972,326.15925)"
       id="node2"
       class="node">
      <title
         id="title17">1</title>
      <circle
         cx="155"
         cy="-98"
         id="ellipse19"
         r="16"
         style="fill:#d3d3d3;stroke:#000000" />
    </g>
    <g
       transform="matrix(4.16667,0,0,4.16667,-555.37972,326.15925)"
       id="edge1"
       class="edge">
      <title
         id="title22">0-&gt;1</title>
      <path
         d="m 79.5721,-78.2404 c 16.5665,-4.3982 35.4269,-9.4054 50.0169,-13.2788"
         id="path24"
         inkscape:connector-curvature="0"
         style="fill:none;stroke:#000000" />
      <polygon
         points="128.801,-94.9311 128.801,-94.9311 139.364,-94.1143 130.597,-88.1654 "
         id="polygon26"
         style="fill:#000000;stroke:#000000" />
      <text
         x="101.5"
         y="-87.800003"
         font-size="14.00"
         id="text28"
         style="font-size:14px;font-family:Times, serif;text-anchor:middle">d</text>
    </g>
    <g
       transform="matrix(4.16667,0,0,4.16667,-555.37972,326.15925)"
       id="node6"
       class="node">
      <title
         id="title31">5</title>
      <circle
         cx="155"
         cy="-32"
         id="ellipse33"
         r="32"
         style="fill:#d3d3d3;stroke:#000000" />
    </g>
    <path
       style="fill:none;stroke:#000000;stroke-width:25.00001907"
       inkscape:connector-curvature="0"
       id="path38"
       d="m -234.27696,90.699062 c 49.62004,15.808348 105.07258,33.474608 155.722621,49.610868" />
    <polygon
       transform="matrix(4.16667,0,0,4.16667,-555.37972,326.15925)"
       style="fill:#000000;stroke:#000000;stroke-width:6"
       id="polygon40"
       points="124.322,-41.4549 113.2,-39.4882 116.388,-49.4928 116.388,-49.4928 " />
    <text
       style="font-size:58.33338165px;font-family:Times, serif;text-anchor:middle"
       id="text42"
       font-size="14.00"
       y="91.043274"
       x="-135.67645">t</text>
    <g
       transform="matrix(4.16667,0,0,4.16667,-555.37972,326.15925)"
       id="node3"
       class="node">
      <title
         id="title45">2</title>
      <circle
         cx="262"
         cy="-98"
         id="ellipse47"
         r="16"
         style="fill:#d3d3d3;stroke:#000000" />
    </g>
    <g
       transform="matrix(4.16667,0,0,4.16667,-555.37972,326.15925)"
       id="edge3"
       class="edge">
      <title
         id="title50">1-&gt;2</title>
      <path
         d="m 171.044,-98 c 16.92,0 44.669,0 64.88,0"
         id="path52"
         inkscape:connector-curvature="0"
         style="fill:none;stroke:#000000" />
      <polygon
         points="235.984,-101.5 235.984,-101.5 245.984,-98 235.984,-94.5001 "
         id="polygon54"
         style="fill:#000000;stroke:#000000" />
      <text
         x="208.5"
         y="-101.8"
         font-size="14.00"
         id="text56"
         style="font-size:14px;font-family:Times, serif;text-anchor:middle">i</text>
    </g>
    <g
       transform="matrix(4.16667,0,0,4.16667,-555.37972,326.15925)"
       id="node4"
       class="node">
      <title
         id="title59">3</title>
      <circle
         cx="377"
         cy="-68"
         id="ellipse61"
         r="36"
         style="fill:#d3d3d3;stroke:#000000" />
      <circle
         cx="377"
         cy="-68"
         id="ellipse63"
         r="40"
         style="fill:none;stroke:#000000" />
    </g>
    <path
       style="fill:none;stroke:#000000;stroke-width:4.16666985"
       inkscape:connector-curvature="0"
       id="path68"
       d="m 602.00871,-65.83273 c 53.42087,14.182511 133.82927,35.530028 209.271,55.559211" />
    <polygon
       transform="matrix(4.16667,0,0,4.16667,-555.37972,326.15925)"
       style="fill:#000000;stroke:#000000"
       id="polygon70"
       points="337.886,-78.1187 327.323,-77.302 329.119,-84.0676 329.119,-84.0676 " />
    <text
       style="font-size:58.33338165px;font-family:Times, serif;text-anchor:middle"
       id="text72"
       font-size="14.00"
       y="-55.743107"
       x="714.21222">b</text>
    <g
       transform="matrix(4.16667,0,0,4.16667,-555.37972,326.15925)"
       id="node5"
       class="node">
      <title
         id="title75">4</title>
      <circle
         cx="490.5"
         cy="-68"
         id="ellipse77"
         r="27.5"
         style="fill:#d3d3d3;stroke:#000000" />
      <circle
         cx="490.5"
         cy="-68"
         id="ellipse79"
         r="31.5"
         style="fill:none;stroke:#000000" />
    </g>
    <path
       style="fill:none;stroke:#000000;stroke-width:16.66667938"
       inkscape:connector-curvature="0"
       id="path84"
       d="m 1183.4175,42.82569 c 42.7125,0 88.8167,0 131.7959,0" />
    <polygon
       transform="matrix(4.16667,0,0,4.16667,-555.37972,326.15925)"
       style="fill:#000000;stroke:#000000;stroke-width:4"
       id="polygon86"
       points="458.948,-68 448.948,-64.5001 448.948,-71.5001 448.948,-71.5001 " />
    <text
       style="font-size:58.33338165px;font-family:Times, serif;text-anchor:middle"
       id="text88"
       font-size="14.00"
       y="18.957972"
       x="1247.1255">s</text>
    <g
       transform="matrix(4.16667,0,0,4.16667,-555.37972,326.15925)"
       id="node7"
       class="node">
      <title
         id="title91">6</title>
      <circle
         cx="262"
         cy="-32"
         id="ellipse93"
         r="32"
         style="fill:#d3d3d3;stroke:#000000" />
    </g>
    <g
       transform="matrix(4.16667,0,0,4.16667,-555.37972,326.15925)"
       id="edge6"
       class="edge">
      <title
         id="title96">5-&gt;6</title>
      <path
         d="m 187.219,-32 c 10.17,0 21.623,0 32.417,0"
         id="path98"
         inkscape:connector-curvature="0"
         style="fill:none;stroke:#000000;stroke-width:3" />
      <polygon
         points="219.72,-35.5001 219.72,-35.5001 229.72,-32 219.72,-28.5001 "
         id="polygon100"
         style="fill:#000000;stroke:#000000;stroke-width:3" />
      <text
         x="208.5"
         y="-35.799999"
         font-size="14.00"
         id="text102"
         style="font-size:14px;font-family:Times, serif;text-anchor:middle">o</text>
    </g>
    <g
       transform="matrix(4.16667,0,0,4.16667,-555.37972,326.15925)"
       id="edge7"
       class="edge">
      <title
         id="title105">5-&gt;6</title>
      <path
         d="m 184.499,-18.9208 c 6.597,2.453 13.685,4.6456 20.501,5.9208 6.291,1.1771 12.84,0.654 19.147,-0.8109"
         id="path107"
         inkscape:connector-curvature="0"
         style="fill:none;stroke:#000000;stroke-width:3" />
      <polygon
         points="223.2,-17.1816 223.2,-17.1816 233.787,-16.7793 225.26,-10.4915 "
         id="polygon109"
         style="fill:#000000;stroke:#000000;stroke-width:3" />
      <text
         x="208.5"
         y="-16.799999"
         font-size="14.00"
         id="text111"
         style="font-size:14px;font-family:Times, serif;text-anchor:middle">a</text>
    </g>
    <path
       style="fill:none;stroke:#000000;stroke-width:25.00001907"
       inkscape:connector-curvature="0"
       id="path116"
       d="m 664.15876,153.41495 c 46.00837,-14.6571 99.42508,-31.67545 150.36262,-47.90254" />
    <polygon
       transform="matrix(4.16667,0,0,4.16667,-555.37972,326.15925)"
       style="fill:#000000;stroke:#000000;stroke-width:6"
       id="polygon118"
       points="338.407,-56.0235 330.473,-47.9856 327.285,-57.9902 327.285,-57.9902 " />
    <text
       style="font-size:58.33338165px;font-family:Times, serif;text-anchor:middle"
       id="text120"
       font-size="14.00"
       y="95.863892"
       x="727.0672">p</text>
  </g>
</svg>
